<svg xmlns="http://www.w3.org/2000/svg" xmlns:xlink="http://www.w3.org/1999/xlink" xmlns:lucid="lucid" width="530.93" height="406.85"><g transform="translate(-948.5261948013227 -289.1374295565771)" lucid:page-tab-id="0_0"><path d="M970.6 377.47a6 6 0 0 1 4.35-7.3l190-48.16a6 6 0 0 1 7.28 4.35L1241.87 601a6 6 0 0 1-4.35 7.28l-189.98 48.18a6 6 0 0 1-7.3-4.34z" stroke="#3a414a" fill="#e81313"/><path d="M982.45 384.85a6 6 0 0 1 4.34-7.3l170.6-43.25a6 6 0 0 1 7.3 4.34l5.72 22.62a6 6 0 0 1-4.34 7.3l-170.6 43.25a6 6 0 0 1-7.3-4.33zM992.45 421.6a6 6 0 0 1 4.34-7.3l78.65-19.95a6 6 0 0 1 7.3 4.34l1.06 4.2a6 6 0 0 1-4.33 7.3l-78.66 19.94a6 6 0 0 1-7.28-4.34zM1083.7 398.45a6 6 0 0 1 4.35-7.3l78.7-19.95a6 6 0 0 1 7.3 4.35l1.06 4.2a6 6 0 0 1-4.33 7.3l-78.7 19.96a6 6 0 0 1-7.3-4.34zM996.15 437.52a6 6 0 0 1 4.34-7.3l78.65-19.94a6 6 0 0 1 7.3 4.34l1.06 4.2a6 6 0 0 1-4.33 7.3l-78.66 19.95a6 6 0 0 1-7.28-4.34z" stroke="#3a414a" fill="#fff"/><path d="M1087.4 414.38a6 6 0 0 1 4.35-7.3l78.7-19.95a6 6 0 0 1 7.3 4.34l1.06 4.22a6 6 0 0 1-4.33 7.28l-78.7 19.95a6 6 0 0 1-7.3-4.34zM1001.38 456.82a6 6 0 0 1 4.34-7.3l170.6-43.25a6 6 0 0 1 7.3 4.35l46.2 182.23a6 6 0 0 1-4.34 7.3l-170.6 43.25a6 6 0 0 1-7.3-4.35z" stroke="#3a414a" fill="#fff"/><path d="M1011.57 355.97a6 6 0 0 1 5.07-6.8l193.9-28.55a6 6 0 0 1 6.82 5.07l41.26 280.3a6 6 0 0 1-5.07 6.8l-193.9 28.55a6 6 0 0 1-6.82-5.06z" stroke="#3a414a" fill="#e81313"/><path d="M1022.6 364.52a6 6 0 0 1 5.07-6.8l174.12-25.64a6 6 0 0 1 6.8 5.06l3.4 23.1a6 6 0 0 1-5.06 6.8l-174.13 25.63a6 6 0 0 1-6.8-5.07zM1028.8 402.1a6 6 0 0 1 5.06-6.82l80.3-11.82a6 6 0 0 1 6.8 5.06l.63 4.3a6 6 0 0 1-5.07 6.8l-80.3 11.83a6 6 0 0 1-6.8-5.06zM1121.94 388.38a6 6 0 0 1 5.07-6.8l80.33-11.83a6 6 0 0 1 6.8 5.06l.65 4.3a6 6 0 0 1-5.07 6.82l-80.3 11.82a6 6 0 0 1-6.82-5.06zM1030.85 418.3a6 6 0 0 1 5.07-6.8l80.28-11.82a6 6 0 0 1 6.8 5.06l.65 4.3a6 6 0 0 1-5.07 6.82l-80.28 11.8a6 6 0 0 1-6.8-5.05z" stroke="#3a414a" fill="#fff"/><path d="M1124 404.6a6 6 0 0 1 5.06-6.8l80.33-11.83a6 6 0 0 1 6.8 5.06l.63 4.3a6 6 0 0 1-5.06 6.8l-80.33 11.83a6 6 0 0 1-6.8-5.06zM1034.1 438.05a6 6 0 0 1 5.06-6.8l174.12-25.64a6 6 0 0 1 6.8 5.07l27.4 186a6 6 0 0 1-5.08 6.8l-174.12 25.64a6 6 0 0 1-6.8-5.06z" stroke="#3a414a" fill="#fff"/><path d="M1055.55 338.23a6 6 0 0 1 5.7-6.28l195.78-9.37a6 6 0 0 1 6.28 5.7l13.55 283.02a6 6 0 0 1-5.7 6.28l-195.78 9.37a6 6 0 0 1-6.28-5.7z" stroke="#3a414a" fill="#e81313"/><path d="M1065.7 347.82a6 6 0 0 1 5.7-6.28l175.8-8.4a6 6 0 0 1 6.28 5.7l1.1 23.3a6 6 0 0 1-5.7 6.28l-175.8 8.4a6 6 0 0 1-6.28-5.7zM1068.17 385.8a6 6 0 0 1 5.7-6.27l81.06-3.87a6 6 0 0 1 6.28 5.7l.22 4.34a6 6 0 0 1-5.7 6.28l-81.07 3.88a6 6 0 0 1-6.27-5.7zM1162.2 381.3a6 6 0 0 1 5.7-6.27l81.1-3.88a6 6 0 0 1 6.3 5.7l.2 4.35a6 6 0 0 1-5.7 6.28l-81.1 3.88a6 6 0 0 1-6.3-5.7zM1068.62 402.16a6 6 0 0 1 5.7-6.28l81.07-3.88a6 6 0 0 1 6.26 5.7l.2 4.35a6 6 0 0 1-5.7 6.28l-81.05 3.88a6 6 0 0 1-6.27-5.7z" stroke="#3a414a" fill="#fff"/><path d="M1162.66 397.66a6 6 0 0 1 5.7-6.28l81.1-3.88a6 6 0 0 1 6.3 5.7l.2 4.35a6 6 0 0 1-5.7 6.28l-81.1 3.88a6 6 0 0 1-6.3-5.7zM1069.9 422.12a6 6 0 0 1 5.7-6.28l175.8-8.4a6 6 0 0 1 6.3 5.7l8.97 187.78a6 6 0 0 1-5.7 6.28l-175.8 8.4a6 6 0 0 1-6.28-5.7z" stroke="#3a414a" fill="#fff"/><path d="M1097.5 324.45a6 6 0 0 1 6.25-5.74l195.82 8.38a6 6 0 0 1 5.74 6.25l-12.1 283.08a6 6 0 0 1-6.24 5.74l-195.82-8.37a6 6 0 0 1-5.74-6.25z" stroke="#3a414a" fill="#e81313"/><path d="M1106.73 334.9a6 6 0 0 1 6.25-5.73l175.84 7.52a6 6 0 0 1 5.74 6.24l-1 23.3a6 6 0 0 1-6.25 5.75l-175.83-7.52a6 6 0 0 1-5.74-6.26zM1105.76 372.98a6 6 0 0 1 6.25-5.74l81.1 3.46a6 6 0 0 1 5.73 6.26l-.2 4.34a6 6 0 0 1-6.24 5.74l-81.1-3.47a6 6 0 0 1-5.73-6.25zM1199.82 377a6 6 0 0 1 6.25-5.74l81.12 3.47a6 6 0 0 1 5.73 6.25l-.2 4.34a6 6 0 0 1-6.24 5.74l-81.13-3.47a6 6 0 0 1-5.73-6.26z" stroke="#3a414a" fill="#fff"/><path d="M1104.73 389.3a6 6 0 0 1 6.25-5.74l81.08 3.46a6 6 0 0 1 5.74 6.25l-.2 4.35a6 6 0 0 1-6.24 5.73l-81.07-3.46a6 6 0 0 1-5.75-6.26zM1198.8 393.32a6 6 0 0 1 6.25-5.74l81.12 3.47a6 6 0 0 1 5.73 6.25l-.18 4.34a6 6 0 0 1-6.25 5.74l-81.12-3.47a6 6 0 0 1-5.74-6.24zM1104.2 409.3a6 6 0 0 1 6.26-5.75l175.84 7.52a6 6 0 0 1 5.74 6.25L1284 605.15a6 6 0 0 1-6.24 5.74l-175.84-7.53a6 6 0 0 1-5.74-6.25z" stroke="#3a414a" fill="#fff"/><path d="M1153.67 316.3a6 6 0 0 1 6.98-4.8l192.8 35.24a6 6 0 0 1 4.83 6.98l-50.96 278.72a6 6 0 0 1-6.98 4.82L1107.54 602a6 6 0 0 1-4.83-6.97z" stroke="#3a414a" fill="#e81313"/><path d="M1161.37 327.95a6 6 0 0 1 6.98-4.82l173.13 31.65a6 6 0 0 1 4.83 6.98l-4.2 22.95a6 6 0 0 1-6.97 4.84L1162 357.88a6 6 0 0 1-4.83-6.98zM1155.17 365.52a6 6 0 0 1 6.98-4.83l79.83 14.6a6 6 0 0 1 4.83 6.97l-.78 4.28a6 6 0 0 1-6.98 4.82l-79.83-14.6a6 6 0 0 1-4.8-6.98zM1247.78 382.45a6 6 0 0 1 7-4.82l79.85 14.6a6 6 0 0 1 4.83 6.98l-.78 4.3a6 6 0 0 1-7 4.8l-79.86-14.6a6 6 0 0 1-4.82-6.97zM1151.9 381.54a6 6 0 0 1 7-4.82l79.82 14.6a6 6 0 0 1 4.82 6.97l-.78 4.27a6 6 0 0 1-6.98 4.82l-79.83-14.6a6 6 0 0 1-4.82-7z" stroke="#3a414a" fill="#fff"/><path d="M1244.52 398.47a6 6 0 0 1 6.98-4.82l79.87 14.6a6 6 0 0 1 4.82 6.98l-.8 4.28a6 6 0 0 1-6.97 4.83l-79.87-14.6a6 6 0 0 1-4.82-6.98zM1148.63 401.27a6 6 0 0 1 7-4.82l173.12 31.65a6 6 0 0 1 4.82 6.98l-33.8 184.94a6 6 0 0 1-7 4.82l-173.13-31.65a6 6 0 0 1-4.82-7z" stroke="#3a414a" fill="#fff"/><path d="M1209.74 315.5a6 6 0 0 1 7.5-3.95l187.1 58.47a6 6 0 0 1 3.93 7.52l-84.52 270.43a6 6 0 0 1-7.52 3.94l-187.08-58.46a6 6 0 0 1-3.93-7.52z" stroke="#3a414a" fill="#e81313"/><path d="M1215.97 327.98a6 6 0 0 1 7.5-3.94l168 52.5a6 6 0 0 1 3.94 7.52l-6.96 22.27a6 6 0 0 1-7.5 3.94l-168-52.5a6 6 0 0 1-3.94-7.52zM1205.24 364.5a6 6 0 0 1 7.5-3.93l77.47 24.2a6 6 0 0 1 3.95 7.53l-1.3 4.15a6 6 0 0 1-7.52 3.94l-77.45-24.22a6 6 0 0 1-3.94-7.52zM1295.1 392.6a6 6 0 0 1 7.5-3.94l77.5 24.22a6 6 0 0 1 3.95 7.52l-1.3 4.15a6 6 0 0 1-7.52 3.93l-77.5-24.22a6 6 0 0 1-3.93-7.5z" stroke="#3a414a" fill="#fff"/><path d="M1200.05 380.02a6 6 0 0 1 7.5-3.94l77.47 24.2a6 6 0 0 1 3.94 7.52l-1.3 4.15a6 6 0 0 1-7.52 3.94l-77.45-24.22a6 6 0 0 1-3.95-7.52zM1289.9 408.1a6 6 0 0 1 7.52-3.94l77.5 24.22a6 6 0 0 1 3.94 7.52l-1.3 4.15a6 6 0 0 1-7.52 3.94l-77.5-24.23a6 6 0 0 1-3.93-7.52zM1194.4 399.2a6 6 0 0 1 7.5-3.93l168 52.5a6 6 0 0 1 3.93 7.52l-56.08 179.43a6 6 0 0 1-7.5 3.93l-168-52.5a6 6 0 0 1-3.94-7.52z" stroke="#3a414a" fill="#fff"/><path d="M1268.95 324.28a6 6 0 0 1 8.02-2.8l176.42 85.4a6 6 0 0 1 2.78 8l-123.43 255.04a6 6 0 0 1-8.02 2.8l-176.42-85.4a6 6 0 0 1-2.78-8z" stroke="#3a414a" fill="#e81313"/><use xlink:href="#a" transform="matrix(0.9001212411388898,0.4356394739352537,-0.4356394739352537,0.9001212411388898,1273.8898648121726,325.55304085728017) translate(57.08641975308642 147.37152777777777)"/><path d="M1273.27 337.54a6 6 0 0 1 8.02-2.78l158.4 76.67a6 6 0 0 1 2.8 8l-10.17 21a6 6 0 0 1-8 2.8l-158.43-76.67a6 6 0 0 1-2.8-8.02zM1257.28 372.1a6 6 0 0 1 8.02-2.8l73.04 35.36a6 6 0 0 1 2.8 8.02l-1.9 3.9a6 6 0 0 1-8.02 2.8l-73.04-35.36a6 6 0 0 1-2.8-8zM1342.03 413.1a6 6 0 0 1 8-2.78l73.1 35.38a6 6 0 0 1 2.78 8l-1.88 3.92a6 6 0 0 1-8.02 2.8l-73.08-35.38a6 6 0 0 1-2.8-8.02z" stroke="#3a414a" fill="#fff"/><path d="M1249.86 386.67a6 6 0 0 1 8.02-2.8l73.05 35.37a6 6 0 0 1 2.78 8l-1.88 3.92a6 6 0 0 1-8.02 2.8l-73.04-35.36a6 6 0 0 1-2.8-8.02zM1334.6 427.68a6 6 0 0 1 8.02-2.78l73.1 35.37a6 6 0 0 1 2.77 8l-1.9 3.92a6 6 0 0 1-8 2.78l-73.1-35.37a6 6 0 0 1-2.8-8zM1241.45 404.8a6 6 0 0 1 8-2.77l158.43 76.67a6 6 0 0 1 2.8 8l-81.9 169.24a6 6 0 0 1-8.02 2.78l-158.43-76.67a6 6 0 0 1-2.78-8z" stroke="#3a414a" fill="#fff"/><use xlink:href="#b" transform="matrix(0.9001212411388898,0.4356394739352537,-0.4356394739352537,0.9001212411388898,1246.3841043799655,406.0926365569706) translate(13.81481481481481 100.90277777777777)"/><use xlink:href="#c" transform="matrix(0.9001212411388898,0.4356394739352537,-0.4356394739352537,0.9001212411388898,1246.3841043799655,406.0926365569706) translate(103.81481481481481 100.90277777777777)"/><defs><path fill="#3a414a" d="M127-220V0H93v-220H8v-28h204v28h-85" id="d"/><path fill="#3a414a" d="M141-36C126-15 110 5 73 4 37 3 15-17 15-53c-1-64 63-63 125-63 3-35-9-54-41-54-24 1-41 7-42 31l-33-3c5-37 33-52 76-52 45 0 72 20 72 64v82c-1 20 7 32 28 27v20c-31 9-61-2-59-35zM48-53c0 20 12 33 32 33 41-3 63-29 60-74-43 2-92-5-92 41" id="e"/><path fill="#3a414a" d="M115-194c53 0 69 39 70 98 0 66-23 100-70 100C84 3 66-7 56-30L54 0H23l1-261h32v101c10-23 28-34 59-34zm-8 174c40 0 45-34 45-75 0-40-5-75-45-74-42 0-51 32-51 76 0 43 10 73 51 73" id="f"/><path fill="#3a414a" d="M24 0v-261h32V0H24" id="g"/><path fill="#3a414a" d="M100-194c63 0 86 42 84 106H49c0 40 14 67 53 68 26 1 43-12 49-29l28 8c-11 28-37 45-77 45C44 4 14-33 15-96c1-61 26-98 85-98zm52 81c6-60-76-77-97-28-3 7-6 17-6 28h103" id="h"/><path fill="#3a414a" d="M59-47c-2 24 18 29 38 22v24C64 9 27 4 27-40v-127H5v-23h24l9-43h21v43h35v23H59v120" id="i"/><path fill="#3a414a" d="M100-194c62-1 85 37 85 99 1 63-27 99-86 99S16-35 15-95c0-66 28-99 85-99zM99-20c44 1 53-31 53-75 0-43-8-75-51-75s-53 32-53 75 10 74 51 75" id="j"/><path fill="#3a414a" d="M115-194c55 1 70 41 70 98S169 2 115 4C84 4 66-9 55-30l1 105H24l-1-265h31l2 30c10-21 28-34 59-34zm-8 174c40 0 45-34 45-75s-6-73-45-74c-42 0-51 32-51 76 0 43 10 73 51 73" id="k"/><g id="a"><use transform="matrix(0.06172839506172839,0,0,0.06172839506172839,0,0)" xlink:href="#d"/><use transform="matrix(0.06172839506172839,0,0,0.06172839506172839,11.049382716049381,0)" xlink:href="#e"/><use transform="matrix(0.06172839506172839,0,0,0.06172839506172839,23.39506172839506,0)" xlink:href="#f"/><use transform="matrix(0.06172839506172839,0,0,0.06172839506172839,35.74074074074074,0)" xlink:href="#g"/><use transform="matrix(0.06172839506172839,0,0,0.06172839506172839,40.617283950617285,0)" xlink:href="#h"/><use transform="matrix(0.06172839506172839,0,0,0.06172839506172839,52.96296296296296,0)" xlink:href="#i"/><use transform="matrix(0.06172839506172839,0,0,0.06172839506172839,59.135802469135804,0)" xlink:href="#j"/><use transform="matrix(0.06172839506172839,0,0,0.06172839506172839,71.48148148148148,0)" xlink:href="#k"/></g><g id="b"><use transform="matrix(0.06172839506172839,0,0,0.06172839506172839,0,0)" xlink:href="#d"/><use transform="matrix(0.06172839506172839,0,0,0.06172839506172839,11.049382716049381,0)" xlink:href="#e"/><use transform="matrix(0.06172839506172839,0,0,0.06172839506172839,23.39506172839506,0)" xlink:href="#f"/><use transform="matrix(0.06172839506172839,0,0,0.06172839506172839,35.74074074074074,0)" xlink:href="#g"/><use transform="matrix(0.06172839506172839,0,0,0.06172839506172839,40.617283950617285,0)" xlink:href="#h"/><use transform="matrix(0.06172839506172839,0,0,0.06172839506172839,52.96296296296296,0)" xlink:href="#i"/><use transform="matrix(0.06172839506172839,0,0,0.06172839506172839,59.135802469135804,0)" xlink:href="#j"/><use transform="matrix(0.06172839506172839,0,0,0.06172839506172839,71.48148148148148,0)" xlink:href="#k"/></g><path fill="#3a414a" d="M185-189c-5-48-123-54-124 2 14 75 158 14 163 119 3 78-121 87-175 55-17-10-28-26-33-46l33-7c5 56 141 63 141-1 0-78-155-14-162-118-5-82 145-84 179-34 5 7 8 16 11 25" id="l"/><path fill="#3a414a" d="M135-143c-3-34-86-38-87 0 15 53 115 12 119 90S17 21 10-45l28-5c4 36 97 45 98 0-10-56-113-15-118-90-4-57 82-63 122-42 12 7 21 19 24 35" id="m"/><g id="c"><use transform="matrix(0.06172839506172839,0,0,0.06172839506172839,0,0)" xlink:href="#l"/><use transform="matrix(0.06172839506172839,0,0,0.06172839506172839,14.814814814814813,0)" xlink:href="#k"/><use transform="matrix(0.06172839506172839,0,0,0.06172839506172839,27.160493827160494,0)" xlink:href="#h"/><use transform="matrix(0.06172839506172839,0,0,0.06172839506172839,39.50617283950617,0)" xlink:href="#g"/><use transform="matrix(0.06172839506172839,0,0,0.06172839506172839,44.382716049382715,0)" xlink:href="#g"/><use transform="matrix(0.06172839506172839,0,0,0.06172839506172839,49.25925925925926,0)" xlink:href="#m"/></g></defs></g></svg>